{
  "accessors": [
    {
      "bufferView": 2,
      "componentType": 5126,
      "count": 9179,
      "max": [
        0.23827800154685974,
        0.9921979904174805,
        0.5357639789581299
      ],
      "min": [
        -0.23827800154685974,
        -1.0,
        -0.5206720232963562
      ],
      "type": "VEC3"
    },
    {
      "bufferView": 2,
      "byteOffset": 110148,
      "componentType": 5126,
      "count": 9179,
      "max": [
        1.0,
        1.0,
        1.0
      ],
      "min": [
        -1.0,
        -1.0,
        -1.0
      ],
      "type": "VEC3"
    },
    {
      "bufferView": 3,
      "componentType": 5126,
      "count": 9179,
      "max": [
        1.0,
        1.0,
        0.99904865026474,
        1.0
      ],
      "min": [
        -1.0,
        -1.0,
        -1.0,
        -1.0
      ],
      "type": "VEC4"
    },
    {
      "bufferView": 1,
      "componentType": 5126,
      "count": 9179,
      "max": [
        0.9986929893493652,
        0.9987090229988098
      ],
      "min": [
        0.001288590021431446,
        0.0012734599877148867
      ],
      "type": "VEC2"
    },
    {
      "bufferView": 0,
      "componentType": 5125,
      "count": 40785,
      "type": "SCALAR"
    },
    {
      "bufferView": 2,
      "byteOffset": 220296,
      "componentType": 5126,
      "count": 20884,
      "max": [
        0.2049960047006607,
        0.003677109954878688,
        0.42770498991012573
      ],
      "min": [
        -0.20179100334644318,
        -0.5880249738693237,
        -0.5357639789581299
      ],
      "type": "VEC3"
    },
    {
      "bufferView": 2,
      "byteOffset": 470904,
      "componentType": 5126,
      "count": 20884,
      "max": [
        1.0,
        1.0,
        1.0
      ],
      "min": [
        -1.0,
        -1.0,
        -1.0
      ],
      "type": "VEC3"
    },
    {
      "bufferView": 3,
      "byteOffset": 146864,
      "componentType": 5126,
      "count": 20884,
      "max": [
        1.0,
        1.0,
        1.0,
        1.0
      ],
      "min": [
        -1.0,
        -1.0,
        -1.0,
        -1.0
      ],
      "type": "VEC4"
    },
    {
      "bufferView": 1,
      "byteOffset": 73432,
      "componentType": 5126,
      "count": 20884,
      "max": [
        0.9988629817962646,
        0.9989150166511536
      ],
      "min": [
        0.0010500800563022494,
        0.0010508300038054585
      ],
      "type": "VEC2"
    },
    {
      "bufferView": 0,
      "byteOffset": 163140,
      "componentType": 5125,
      "count": 80502,
      "type": "SCALAR"
    },
    {
      "bufferView": 2,
      "byteOffset": 721512,
      "componentType": 5126,
      "count": 11356,
      "max": [
        0.2113880068063736,
        1.0,
        0.3488770127296448
      ],
      "min": [
        -0.19741800427436829,
        -0.5162630081176758,
        -0.4960170090198517
      ],
      "type": "VEC3"
    },
    {
      "bufferView": 2,
      "byteOffset": 857784,
      "componentType": 5126,
      "count": 11356,
      "max": [
        1.0,
        1.0,
        1.0
      ],
      "min": [
        -1.0,
        -1.0,
        -1.0
      ],
      "type": "VEC3"
    },
    {
      "bufferView": 3,
      "byteOffset": 481008,
      "componentType": 5126,
      "count": 11356,
      "max": [
        1.0,
        1.0,
        1.0,
        1.0
      ],
      "min": [
        -1.0,
        -1.0,
        -1.0,
        -1.0
      ],
      "type": "VEC4"
    },
    {
      "bufferView": 1,
      "byteOffset": 240504,
      "componentType": 5126,
      "count": 11356,
      "max": [
        0.9989550113677979,
        0.9991080164909363
      ],
      "min": [
        0.0007303889724425972,
        0.0010453000431880355
      ],
      "type": "VEC2"
    },
    {
      "bufferView": 1,
      "byteOffset": 331352,
      "componentType": 5126,
      "count": 11356,
      "max": [
        0.0,
        0.0
      ],
      "min": [
        0.0,
        0.0
      ],
      "type": "VEC2"
    },
    {
      "bufferView": 0,
      "byteOffset": 485148,
      "componentType": 5125,
      "count": 47850,
      "type": "SCALAR"
    }
  ],
  "asset": {
    "extras": {
      "author": "Cyril Limoges Athiel (https://sketchfab.com/athiel)",
      "license": "CC-BY-4.0 (http://creativecommons.org/licenses/by/4.0/)",
      "source": "https://sketchfab.com/3d-models/ship-steampunk-9f07b3371d6f4807b149aee015f73b3d",
      "title": "Ship_Steampunk"
    },
    "generator": "Sketchfab-12.68.0",
    "version": "2.0"
  },
  "bufferViews": [
    {
      "buffer": 0,
      "byteLength": 676548,
      "name": "floatBufferViews",
      "target": 34963
    },
    {
      "buffer": 0,
      "byteLength": 422200,
      "byteOffset": 676548,
      "byteStride": 8,
      "name": "floatBufferViews",
      "target": 34962
    },
    {
      "buffer": 0,
      "byteLength": 994056,
      "byteOffset": 1098748,
      "byteStride": 12,
      "name": "floatBufferViews",
      "target": 34962
    },
    {
      "buffer": 0,
      "byteLength": 662704,
      "byteOffset": 2092804,
      "byteStride": 16,
      "name": "floatBufferViews",
      "target": 34962
    }
  ],
  "buffers": [
    {
      "byteLength": 2755508,
      "uri": "scene.bin"
    }
  ],
  "images": [
    {
      "uri": "textures/Medium_low_baseColor.png"
    },
    {
      "uri": "textures/Medium_low_metallicRoughness.png"
    },
    {
      "uri": "textures/Medium_low_emissive.jpeg"
    },
    {
      "uri": "textures/Medium_low_normal.png"
    },
    {
      "uri": "textures/Small_low_baseColor.jpeg"
    },
    {
      "uri": "textures/Small_low_metallicRoughness.png"
    },
    {
      "uri": "textures/Small_low_normal.png"
    },
    {
      "uri": "textures/Big_low_baseColor.jpeg"
    },
    {
      "uri": "textures/Big_low_metallicRoughness.png"
    },
    {
      "uri": "textures/Big_low_emissive.jpeg"
    },
    {
      "uri": "textures/Big_low_normal.png"
    }
  ],
  "materials": [
    {
      "alphaMode": "BLEND",
      "emissiveFactor": [
        1.0,
        1.0,
        1.0
      ],
      "emissiveTexture": {
        "index": 5
      },
      "name": "Medium_low",
      "normalTexture": {
        "index": 7
      },
      "occlusionTexture": {
        "index": 6
      },
      "pbrMetallicRoughness": {
        "baseColorTexture": {
          "index": 4
        },
        "metallicRoughnessTexture": {
          "index": 1
        }
      }
    },
    {
      "name": "Small_low",
      "normalTexture": {
        "index": 2
      },
      "occlusionTexture": {
        "index": 5
      },
      "pbrMetallicRoughness": {
        "baseColorTexture": {
          "index": 4
        },
        "metallicRoughnessTexture": {
          "index": 5
        }
      }
    },
    {
      "emissiveFactor": [
        1.0,
        1.0,
        1.0
      ],
      "emissiveTexture": {
        "index": 4
      },
      "name": "Big_low",
      "normalTexture": {
        "index": 1
      },
      "occlusionTexture": {
        "index": 4
      },
      "pbrMetallicRoughness": {
        "baseColorTexture": {
          "index": 3
        },
        "metallicRoughnessTexture": {
          "index": 3
        }
      }
    }
  ],
  "meshes": [
    {
      "name": "defaultMaterial",
      "primitives": [
        {
          "attributes": {
            "NORMAL": 1,
            "POSITION": 0,
            "TANGENT": 2,
            "TEXCOORD_0": 3
          },
          "indices": 4,
          "material": 2,
          "mode": 4
        }
      ]
    },
    {
      "name": "defaultMaterial",
      "primitives": [
        {
          "attributes": {
            "NORMAL": 6,
            "POSITION": 5,
            "TANGENT": 7,
            "TEXCOORD_0": 8
          },
          "indices": 9,
          "material": 1,
          "mode": 4
        }
      ]
    },
    {
      "name": "defaultMaterial",
      "primitives": [
        {
          "attributes": {
            "NORMAL": 11,
            "POSITION": 10,
            "TANGENT": 12,
            "TEXCOORD_0": 13,
            "TEXCOORD_1": 14
          },
          "indices": 15,
          "material": 0,
          "mode": 4
        }
      ]
    }
  ],
  "nodes": [
    {
      "children": [
        1
      ],
      "matrix": [
        1.0,
        0.0,
        0.0,
        0.0,
        0.0,
        2.220446049250313e-16,
        -1.0,
        0.0,
        0.0,
        1.0,
        2.220446049250313e-16,
        0.0,
        0.0,
        0.0,
        0.0,
        1.0
      ],
      "name": "Sketchfab_model"
    },
    {
      "children": [
        2,
        4,
        6
      ],
      "matrix": [
        1.0,
        0.0,
        0.0,
        0.0,
        0.0,
        -4.371139006309477e-08,
        0.999999999999999,
        0.0,
        0.0,
        -0.999999999999999,
        -4.371139006309477e-08,
        0.0,
        0.0,
        0.0,
        0.0,
        1.0
      ],
      "name": "Collada visual scene group"
    },
    {
      "children": [
        3
      ],
      "name": "Big_shape_low"
    },
    {
      "mesh": 0,
      "name": "defaultMaterial"
    },
    {
      "children": [
        5
      ],
      "name": "small_shape_low"
    },
    {
      "mesh": 1,
      "name": "defaultMaterial"
    },
    {
      "children": [
        7
      ],
      "name": "medium_shape_low"
    },
    {
      "mesh": 2,
      "name": "defaultMaterial"
    }
  ],
  "samplers": [
    {
      "magFilter": 9729,
      "minFilter": 9987,
      "wrapS": 10497,
      "wrapT": 10497
    }
  ],
  "scene": 0,
  "scenes": [
    {
      "name": "Sketchfab_Scene",
      "nodes": [
        0
      ]
    }
  ],
  "textures": [
    {
      "sampler": 0,
      "source": 0
    },
    {
      "sampler": 0,
      "source": 1
    },
    {
      "sampler": 0,
      "source": 2
    },
    {
      "sampler": 0,
      "source": 3
    },
    {
      "sampler": 0,
      "source": 4
    },
    {
      "sampler": 0,
      "source": 5
    },
    {
      "sampler": 0,
      "source": 6
    },
    {
      "sampler": 0,
      "source": 7
    },
    {
      "sampler": 0,
      "source": 8
    },
    {
      "sampler": 0,
      "source": 9
    },
    {
      "sampler": 0,
      "source": 10
    }
  ]
}
